# Created by DisUnity v0.3.4
v -2.746523 0.480143 0.350455
v -2.756934 0.534576 -0.522921
v -2.751677 0.586572 0.344104
v -2.751781 0.428147 -0.51657
v -2.751677 0.586572 0.344104
v -2.416873 0.550862 -0.52596
v -2.411616 0.602858 0.341065
v -2.756934 0.534576 -0.522921
v -2.411616 0.602858 0.341065
v -2.411719 0.444433 -0.519608
v -2.406462 0.496429 0.347417
v -2.416873 0.550862 -0.52596
v -2.406462 0.496429 0.347417
v -2.751781 0.428147 -0.51657
v -2.746523 0.480143 0.350455
v -2.411719 0.444433 -0.519608
v -2.751781 0.428147 -0.51657
v -2.416873 0.550862 -0.52596
v -2.756934 0.534576 -0.522921
v -2.411719 0.444433 -0.519608
v -2.751677 0.586572 0.344104
v -2.406462 0.496429 0.347417
v -2.746523 0.480143 0.350455
v -2.411616 0.602858 0.341065
v -2.36935 0.707521 0.350455
v -2.379761 0.761954 -0.522921
v -2.374504 0.81395 0.344104
v -2.374608 0.655525 -0.51657
v -2.374504 0.81395 0.344104
v -2.0397 0.77824 -0.52596
v -2.034443 0.830236 0.341065
v -2.379761 0.761954 -0.522921
v -2.034443 0.830236 0.341065
v -2.034546 0.671811 -0.519608
v -2.029289 0.723807 0.347417
v -2.0397 0.77824 -0.52596
v -2.029289 0.723807 0.347417
v -2.374608 0.655525 -0.51657
v -2.36935 0.707521 0.350455
v -2.034546 0.671811 -0.519608
v -2.374608 0.655525 -0.51657
v -2.0397 0.77824 -0.52596
v -2.379761 0.761954 -0.522921
v -2.034546 0.671811 -0.519608
v -2.374504 0.81395 0.344104
v -2.029289 0.723807 0.347417
v -2.36935 0.707521 0.350455
v -2.034443 0.830236 0.341065
v -3.387726 -0.038415 0.474329
v -2.047508 0.977696 0.341808
v -2.047507 0.977696 0.474329
v -3.387727 -0.038415 0.341808
v -2.047507 0.977696 0.474329
v -1.740758 0.988703 0.341808
v -1.740757 0.988703 0.474329
v -2.047508 0.977696 0.341808
v -1.740757 0.988703 0.474329
v -3.080977 -0.027408 0.341808
v -3.080976 -0.027408 0.474329
v -1.740758 0.988703 0.341808
v -3.080976 -0.027408 0.474329
v -3.387727 -0.038415 0.341808
v -3.387726 -0.038415 0.474329
v -3.080977 -0.027408 0.341808
v -3.387727 -0.038415 0.341808
v -1.740758 0.988703 0.341808
v -2.047508 0.977696 0.341808
v -3.080977 -0.027408 0.341808
v -2.047507 0.977696 0.474329
v -3.080976 -0.027408 0.474329
v -3.387726 -0.038415 0.474329
v -1.740757 0.988703 0.474329
v -3.387726 -0.038415 -0.519726
v -2.047508 0.977696 -0.652248
v -2.047507 0.977696 -0.519727
v -3.387727 -0.038415 -0.652248
v -2.047507 0.977696 -0.519727
v -1.740758 0.988703 -0.652248
v -1.740757 0.988703 -0.519727
v -2.047508 0.977696 -0.652248
v -1.740757 0.988703 -0.519727
v -3.080977 -0.027408 -0.652248
v -3.080976 -0.027408 -0.519726
v -1.740758 0.988703 -0.652248
v -3.080976 -0.027408 -0.519726
v -3.387727 -0.038415 -0.652248
v -3.387726 -0.038415 -0.519726
v -3.080977 -0.027408 -0.652248
v -3.387727 -0.038415 -0.652248
v -1.740758 0.988703 -0.652248
v -2.047508 0.977696 -0.652248
v -3.080977 -0.027408 -0.652248
v -2.047507 0.977696 -0.519727
v -3.080976 -0.027408 -0.519726
v -3.387726 -0.038415 -0.519726
v -1.740757 0.988703 -0.519727
v -3.029573 0.104519 0.344113
v -3.045414 0.232579 -0.520926
v -3.045414 0.21009 0.346849
v -3.029573 0.127008 -0.523662
v -3.045414 0.21009 0.346849
v -2.708712 0.283066 -0.519617
v -2.708712 0.260576 0.348157
v -3.045414 0.232579 -0.520926
v -2.708712 0.260576 0.348157
v -2.692872 0.177494 -0.522353
v -2.692872 0.155005 0.345421
v -2.708712 0.283066 -0.519617
v -2.692872 0.155005 0.345421
v -3.029573 0.127008 -0.523662
v -3.029573 0.104519 0.344113
v -2.692872 0.177494 -0.522353
v -3.029573 0.127008 -0.523662
v -2.708712 0.283066 -0.519617
v -3.045414 0.232579 -0.520926
v -2.692872 0.177494 -0.522353
v -3.045414 0.21009 0.346849
v -2.692872 0.155005 0.345421
v -3.029573 0.104519 0.344113
v -2.708712 0.260576 0.348157
vn -0.99881554 -0.047832347 0.008925177
vn -0.99881554 -0.047832347 0.008925177
vn -0.9988153 -0.04783796 0.008924824
vn -0.9988158 -0.047826733 0.008925529
vn -0.048282392 0.99705976 -0.05950151
vn -0.048282392 0.99705976 -0.05950151
vn -0.048282392 0.99705976 -0.05950151
vn -0.048282392 0.99705976 -0.05950151
vn 0.9988153 0.047836736 -0.008924888
vn 0.9988153 0.047836736 -0.008924888
vn 0.9988153 0.047837846 -0.0089250915
vn 0.9988153 0.04783563 -0.0089246845
vn 0.048282117 -0.9970599 0.0595015
vn 0.048282117 -0.9970599 0.0595015
vn 0.048282135 -0.9970599 0.05950149
vn 0.048282094 -0.9970599 0.059501506
vn -0.006052091 -0.059863485 -0.9981882
vn -0.006052091 -0.059863485 -0.9981882
vn -0.006053712 -0.059859082 -0.99818844
vn -0.00605047 -0.05986789 -0.99818796
vn 0.0060520256 0.05986325 0.9981882
vn 0.0060520256 0.05986325 0.9981882
vn 0.0060507734 0.05985847 0.99818856
vn 0.0060532787 0.059868038 0.99818796
vn -0.99881554 -0.047832355 0.008925176
vn -0.99881554 -0.047832355 0.008925176
vn -0.9988153 -0.04783796 0.008924824
vn -0.9988158 -0.047826745 0.008925528
vn -0.048282377 0.99705976 -0.059501506
vn -0.048282377 0.99705976 -0.059501506
vn -0.04828236 0.99705976 -0.0595015
vn -0.048282392 0.99705976 -0.05950151
vn 0.9988153 0.047836725 -0.008924888
vn 0.9988153 0.047836725 -0.008924888
vn 0.9988153 0.047835615 -0.0089246845
vn 0.9988153 0.047837835 -0.0089250915
vn 0.048281968 -0.9970599 0.05950149
vn 0.048281968 -0.9970599 0.05950149
vn 0.048282046 -0.9970599 0.059501458
vn 0.048281886 -0.9970599 0.05950152
vn -0.0060520936 -0.059863493 -0.9981882
vn -0.0060520936 -0.059863493 -0.9981882
vn -0.0060537113 -0.059859093 -0.99818844
vn -0.0060504763 -0.059867892 -0.99818796
vn 0.006052027 0.05986324 0.9981882
vn 0.006052027 0.05986324 0.9981882
vn 0.0060507786 0.05985847 0.99818856
vn 0.006053276 0.059868015 0.99818796
vn -0.60415745 0.796865 0.0
vn -0.43258774 0.90159184 0.0
vn -0.23499595 0.9719963 0.0
vn -0.60415745 0.796865 0.0
vn -0.23499595 0.9719963 0.0
vn -0.035859592 0.9993568 0.0
vn -0.035859592 0.9993568 0.0
vn -0.43258774 0.90159184 0.0
vn 0.60415745 -0.796865 0.0
vn 0.43258774 -0.90159184 0.0
vn 0.23499595 -0.9719963 0.0
vn 0.60415745 -0.796865 0.0
vn 0.23499595 -0.9719963 0.0
vn 0.035859555 -0.9993568 0.0
vn 0.035859555 -0.9993568 0.0
vn 0.43258774 -0.90159184 0.0
vn -0.0 0.0 -1.0
vn -0.0 0.0 -1.0
vn -0.0 0.0 -1.0
vn -0.0 0.0 -1.0
vn -0.0 0.0 1.0
vn -0.0 0.0 1.0
vn -0.0 0.0 1.0
vn -0.0 0.0 1.0
vn -0.60415745 0.796865 0.0
vn -0.43258774 0.90159184 0.0
vn -0.23499595 0.9719963 0.0
vn -0.60415745 0.796865 0.0
vn -0.23499595 0.9719963 0.0
vn -0.035859592 0.9993568 0.0
vn -0.035859592 0.9993568 0.0
vn -0.43258774 0.90159184 0.0
vn 0.60415745 -0.796865 0.0
vn 0.43258774 -0.90159184 0.0
vn 0.23499595 -0.9719963 0.0
vn 0.60415745 -0.796865 0.0
vn 0.23499595 -0.9719963 0.0
vn 0.035859555 -0.9993568 0.0
vn 0.035859555 -0.9993568 0.0
vn 0.43258774 -0.90159184 0.0
vn -0.0 0.0 -1.0
vn -0.0 0.0 -1.0
vn -0.0 0.0 -1.0
vn -0.0 0.0 -1.0
vn -0.0 0.0 1.0
vn -0.0 0.0 1.0
vn -0.0 0.0 1.0
vn -0.0 0.0 1.0
vn -0.98893625 -0.14829105 -0.003843066
vn -0.98893625 -0.14829105 -0.003843066
vn -0.98893625 -0.14829104 -0.0038430644
vn -0.98893625 -0.14829105 -0.0038430677
vn -0.14833525 0.9886052 0.02562098
vn -0.14833525 0.9886052 0.02562098
vn -0.14833376 0.9886053 0.025621565
vn -0.14833671 0.988605 0.02562039
vn 0.98893774 0.1482816 0.0038429126
vn 0.98893774 0.1482816 0.0038429126
vn 0.9889376 0.14828227 0.0038428458
vn 0.98893785 0.14828093 0.0038429792
vn 0.14833416 -0.9886053 -0.025620427
vn 0.14833416 -0.9886053 -0.025620427
vn 0.14833412 -0.9886053 -0.025620408
vn 0.1483342 -0.9886053 -0.025620446
vn -0.0 0.025907377 -0.9996643
vn -0.0 0.025907377 -0.9996643
vn -0.0 0.025907494 -0.9996643
vn -0.0 0.02590726 -0.9996643
vn -0.0 -0.025907345 0.9996643
vn -0.0 -0.025907345 0.9996643
vn -0.0 -0.025907349 0.9996643
vn -0.0 -0.025907343 0.9996643
vt 0.1745 0.19446301
vt 0.1955 0.08553803
vt 0.1955 0.19446301
vt 0.1745 0.08553803
vt 0.1745 0.19446301
vt 0.1955 0.08553803
vt 0.1955 0.19446301
vt 0.1745 0.08553803
vt 0.1745 0.19446301
vt 0.1955 0.08553803
vt 0.1955 0.19446301
vt 0.1745 0.08553803
vt 0.1745 0.19446301
vt 0.1955 0.08553803
vt 0.1955 0.19446301
vt 0.1745 0.08553803
vt 0.1745 0.19446301
vt 0.1955 0.08553803
vt 0.1955 0.19446301
vt 0.1745 0.08553803
vt 0.1955 0.08553803
vt 0.1745 0.19446301
vt 0.1745 0.08553803
vt 0.1955 0.19446301
vt 0.1745 0.19446301
vt 0.1955 0.08553803
vt 0.1955 0.19446301
vt 0.1745 0.08553803
vt 0.1745 0.19446301
vt 0.1955 0.08553803
vt 0.1955 0.19446301
vt 0.1745 0.08553803
vt 0.1745 0.19446301
vt 0.1955 0.08553803
vt 0.1955 0.19446301
vt 0.1745 0.08553803
vt 0.1745 0.19446301
vt 0.1955 0.08553803
vt 0.1955 0.19446301
vt 0.1745 0.08553803
vt 0.1745 0.19446301
vt 0.1955 0.08553803
vt 0.1955 0.19446301
vt 0.1745 0.08553803
vt 0.1955 0.08553803
vt 0.1745 0.19446301
vt 0.1745 0.08553803
vt 0.1955 0.19446301
vt 0.1745 0.19446301
vt 0.1955 0.08553803
vt 0.1955 0.19446301
vt 0.1745 0.08553803
vt 0.1745 0.19446301
vt 0.1955 0.08553803
vt 0.1955 0.19446301
vt 0.1745 0.08553803
vt 0.1745 0.19446301
vt 0.1955 0.08553803
vt 0.1955 0.19446301
vt 0.1745 0.08553803
vt 0.1745 0.19446301
vt 0.1955 0.08553803
vt 0.1955 0.19446301
vt 0.1745 0.08553803
vt 0.1745 0.19446301
vt 0.1955 0.08553803
vt 0.1955 0.19446301
vt 0.1745 0.08553803
vt 0.1955 0.08553803
vt 0.1745 0.19446301
vt 0.1745 0.08553803
vt 0.1955 0.19446301
vt 0.1745 0.19446301
vt 0.1955 0.08553803
vt 0.1955 0.19446301
vt 0.1745 0.08553803
vt 0.1745 0.19446301
vt 0.1955 0.08553803
vt 0.1955 0.19446301
vt 0.1745 0.08553803
vt 0.1745 0.19446301
vt 0.1955 0.08553803
vt 0.1955 0.19446301
vt 0.1745 0.08553803
vt 0.1745 0.19446301
vt 0.1955 0.08553803
vt 0.1955 0.19446301
vt 0.1745 0.08553803
vt 0.1745 0.19446301
vt 0.1955 0.08553803
vt 0.1955 0.19446301
vt 0.1745 0.08553803
vt 0.1955 0.08553803
vt 0.1745 0.19446301
vt 0.1745 0.08553803
vt 0.1955 0.19446301
vt 0.1745 0.19446301
vt 0.1955 0.08553803
vt 0.1955 0.19446301
vt 0.1745 0.08553803
vt 0.1745 0.19446301
vt 0.1955 0.08553803
vt 0.1955 0.19446301
vt 0.1745 0.08553803
vt 0.1745 0.19446301
vt 0.1955 0.08553803
vt 0.1955 0.19446301
vt 0.1745 0.08553803
vt 0.1745 0.19446301
vt 0.1955 0.08553803
vt 0.1955 0.19446301
vt 0.1745 0.08553803
vt 0.1745 0.19446301
vt 0.1955 0.08553803
vt 0.1955 0.19446301
vt 0.1745 0.08553803
vt 0.1955 0.08553803
vt 0.1745 0.19446301
vt 0.1745 0.08553803
vt 0.1955 0.19446301

g Cube_009_Cube_012
s 1
usemtl Cube_009_Cube_012
f 3/3/3 2/2/2 1/1/1 
f 2/2/2 4/4/4 1/1/1 
f 7/7/7 6/6/6 5/5/5 
f 6/6/6 8/8/8 5/5/5 
f 11/11/11 10/10/10 9/9/9 
f 10/10/10 12/12/12 9/9/9 
f 15/15/15 14/14/14 13/13/13 
f 14/14/14 16/16/16 13/13/13 
f 19/19/19 18/18/18 17/17/17 
f 18/18/18 20/20/20 17/17/17 
f 23/23/23 22/22/22 21/21/21 
f 22/22/22 24/24/24 21/21/21 
f 27/27/27 26/26/26 25/25/25 
f 26/26/26 28/28/28 25/25/25 
f 31/31/31 30/30/30 29/29/29 
f 30/30/30 32/32/32 29/29/29 
f 35/35/35 34/34/34 33/33/33 
f 34/34/34 36/36/36 33/33/33 
f 39/39/39 38/38/38 37/37/37 
f 38/38/38 40/40/40 37/37/37 
f 43/43/43 42/42/42 41/41/41 
f 42/42/42 44/44/44 41/41/41 
f 47/47/47 46/46/46 45/45/45 
f 46/46/46 48/48/48 45/45/45 
f 51/51/51 50/50/50 49/49/49 
f 50/50/50 52/52/52 49/49/49 
f 55/55/55 54/54/54 53/53/53 
f 54/54/54 56/56/56 53/53/53 
f 59/59/59 58/58/58 57/57/57 
f 58/58/58 60/60/60 57/57/57 
f 63/63/63 62/62/62 61/61/61 
f 62/62/62 64/64/64 61/61/61 
f 67/67/67 66/66/66 65/65/65 
f 66/66/66 68/68/68 65/65/65 
f 71/71/71 70/70/70 69/69/69 
f 70/70/70 72/72/72 69/69/69 
f 75/75/75 74/74/74 73/73/73 
f 74/74/74 76/76/76 73/73/73 
f 79/79/79 78/78/78 77/77/77 
f 78/78/78 80/80/80 77/77/77 
f 83/83/83 82/82/82 81/81/81 
f 82/82/82 84/84/84 81/81/81 
f 87/87/87 86/86/86 85/85/85 
f 86/86/86 88/88/88 85/85/85 
f 91/91/91 90/90/90 89/89/89 
f 90/90/90 92/92/92 89/89/89 
f 95/95/95 94/94/94 93/93/93 
f 94/94/94 96/96/96 93/93/93 
f 99/99/99 98/98/98 97/97/97 
f 98/98/98 100/100/100 97/97/97 
f 103/103/103 102/102/102 101/101/101 
f 102/102/102 104/104/104 101/101/101 
f 107/107/107 106/106/106 105/105/105 
f 106/106/106 108/108/108 105/105/105 
f 111/111/111 110/110/110 109/109/109 
f 110/110/110 112/112/112 109/109/109 
f 115/115/115 114/114/114 113/113/113 
f 114/114/114 116/116/116 113/113/113 
f 119/119/119 118/118/118 117/117/117 
f 118/118/118 120/120/120 117/117/117 

