# Created by DisUnity v0.3.4
v -0.344112 0.058303 -1.838863
v -0.247972 0.795462 -0.866574
v -0.344112 0.795462 -0.866574
v -0.247972 0.058303 -1.838864
v -0.344112 0.795462 -0.866574
v -0.247972 0.803447 -0.644036
v -0.344112 0.803447 -0.644036
v -0.247972 0.795462 -0.866574
v -0.344112 0.803447 -0.644036
v -0.247972 0.066289 -1.616326
v -0.344112 0.066289 -1.616325
v -0.247972 0.803447 -0.644036
v -0.344112 0.066289 -1.616325
v -0.247972 0.058303 -1.838864
v -0.344112 0.058303 -1.838863
v -0.247972 0.066289 -1.616326
v -0.247972 0.058303 -1.838864
v -0.247972 0.803447 -0.644036
v -0.247972 0.795462 -0.866574
v -0.247972 0.066289 -1.616326
v -0.344112 0.795462 -0.866574
v -0.344112 0.066289 -1.616325
v -0.344112 0.058303 -1.838863
v -0.344112 0.803447 -0.644036
v -0.254245 0.599458 -1.100061
v 0.379364 0.638947 -1.107614
v -0.249637 0.676669 -1.1038
v 0.374756 0.561736 -1.103876
v -0.249637 0.676669 -1.1038
v 0.381568 0.650762 -0.86091
v -0.247433 0.688484 -0.857096
v 0.379364 0.638947 -1.107614
v -0.247433 0.688484 -0.857096
v 0.37696 0.573551 -0.857171
v -0.252041 0.611273 -0.853357
v 0.381568 0.650762 -0.86091
v -0.252041 0.611273 -0.853357
v 0.374756 0.561736 -1.103876
v -0.254245 0.599458 -1.100061
v 0.37696 0.573551 -0.857171
v 0.374756 0.561736 -1.103876
v 0.381568 0.650762 -0.86091
v 0.379364 0.638947 -1.107614
v 0.37696 0.573551 -0.857171
v -0.249637 0.676669 -1.1038
v -0.252041 0.611273 -0.853357
v -0.254245 0.599458 -1.100061
v -0.247433 0.688484 -0.857096
v 0.377046 0.058303 -1.838863
v 0.473186 0.795462 -0.866574
v 0.377046 0.795462 -0.866574
v 0.473186 0.058303 -1.838864
v 0.377046 0.795462 -0.866574
v 0.473186 0.803447 -0.644036
v 0.377046 0.803447 -0.644036
v 0.473186 0.795462 -0.866574
v 0.377046 0.803447 -0.644036
v 0.473186 0.066289 -1.616326
v 0.377046 0.066289 -1.616325
v 0.473186 0.803447 -0.644036
v 0.377046 0.066289 -1.616325
v 0.473186 0.058303 -1.838864
v 0.377046 0.058303 -1.838863
v 0.473186 0.066289 -1.616326
v 0.473186 0.058303 -1.838864
v 0.473186 0.803447 -0.644036
v 0.473186 0.795462 -0.866574
v 0.473186 0.066289 -1.616326
v 0.377046 0.795462 -0.866574
v 0.377046 0.066289 -1.616325
v 0.377046 0.058303 -1.838863
v 0.377046 0.803447 -0.644036
v -0.254245 0.434502 -1.373689
v 0.379364 0.473991 -1.381242
v -0.249637 0.511713 -1.377428
v 0.374756 0.39678 -1.377504
v -0.249637 0.511713 -1.377428
v 0.381568 0.485806 -1.134538
v -0.247433 0.523528 -1.130724
v 0.379364 0.473991 -1.381242
v -0.247433 0.523528 -1.130724
v 0.37696 0.408595 -1.130799
v -0.252041 0.446317 -1.126985
v 0.381568 0.485806 -1.134538
v -0.252041 0.446317 -1.126985
v 0.374756 0.39678 -1.377504
v -0.254245 0.434502 -1.373689
v 0.37696 0.408595 -1.130799
v 0.374756 0.39678 -1.377504
v 0.381568 0.485806 -1.134538
v 0.379364 0.473991 -1.381242
v 0.37696 0.408595 -1.130799
v -0.249637 0.511713 -1.377428
v -0.252041 0.446317 -1.126985
v -0.254245 0.434502 -1.373689
v -0.247433 0.523528 -1.130724
v -0.249644 0.161998 -1.579033
v 0.377916 0.254902 -1.590526
v -0.251629 0.238586 -1.590526
v 0.379901 0.178313 -1.579034
v -0.251629 0.238586 -1.590526
v 0.376967 0.291528 -1.346259
v -0.252578 0.275212 -1.346258
v 0.377916 0.254902 -1.590526
v -0.252578 0.275212 -1.346258
v 0.378951 0.214939 -1.334767
v -0.250593 0.198624 -1.334767
v 0.376967 0.291528 -1.346259
v -0.250593 0.198624 -1.334767
v 0.379901 0.178313 -1.579034
v -0.249644 0.161998 -1.579033
v 0.378951 0.214939 -1.334767
v 0.379901 0.178313 -1.579034
v 0.376967 0.291528 -1.346259
v 0.377916 0.254902 -1.590526
v 0.378951 0.214939 -1.334767
v -0.251629 0.238586 -1.590526
v -0.250593 0.198624 -1.334767
v -0.249644 0.161998 -1.579033
v -0.252578 0.275212 -1.346258
vn -0.0 0.7968648 -0.60415757
vn -0.0 0.7968648 -0.60415757
vn -0.0 0.79686475 -0.6041578
vn -0.0 0.796865 -0.60415745
vn -0.0 0.9993569 -0.03585842
vn -0.0 0.9993569 -0.03585842
vn -0.0 0.9993569 -0.03585842
vn -0.0 0.9993569 -0.03585842
vn -0.0 -0.7968652 0.6041571
vn -0.0 -0.7968652 0.6041571
vn -0.0 -0.7968651 0.60415727
vn -0.0 -0.79686534 0.6041569
vn -0.0 -0.9993567 0.035862926
vn -0.0 -0.9993567 0.035862926
vn -0.0 -0.9993567 0.035862926
vn -0.0 -0.9993567 0.035862926
vn 1.0 0.0 0.0
vn 1.0 0.0 0.0
vn 1.0 0.0 0.0
vn 1.0 0.0 0.0
vn -1.0 0.0 0.0
vn -1.0 0.0 0.0
vn -1.0 0.0 0.0
vn -1.0 0.0 0.0
vn -0.008925527 -0.047829516 -0.99881566
vn -0.008925527 -0.047829516 -0.99881566
vn -0.008925138 -0.04783569 -0.9988153
vn -0.008925916 -0.047823336 -0.9988159
vn 0.059502177 0.99705976 -0.048282202
vn 0.059502177 0.99705976 -0.048282202
vn 0.059502177 0.99705976 -0.048282202
vn 0.059502177 0.99705976 -0.048282202
vn 0.008925138 0.04783569 0.9988153
vn 0.008925138 0.04783569 0.9988153
vn 0.008925138 0.04783569 0.9988153
vn 0.008925138 0.04783569 0.9988153
vn -0.059502147 -0.99705976 0.04828211
vn -0.059502147 -0.99705976 0.04828211
vn -0.059502106 -0.99705976 0.048282202
vn -0.059502184 -0.99705976 0.048282016
vn 0.9981881 -0.059865497 -0.006050542
vn 0.9981881 -0.059865497 -0.006050542
vn 0.9981881 -0.059865456 -0.006050555
vn 0.9981881 -0.059865534 -0.0060505285
vn -0.9981881 0.059865624 0.006050517
vn -0.9981881 0.059865624 0.006050517
vn -0.9981881 0.05986572 0.006050542
vn -0.9981881 0.05986553 0.0060504912
vn -0.0 0.7968648 -0.60415757
vn -0.0 0.7968648 -0.60415757
vn -0.0 0.7968647 -0.6041578
vn -0.0 0.796865 -0.60415745
vn -0.0 0.9993569 -0.035858423
vn -0.0 0.9993569 -0.035858423
vn -0.0 0.9993569 -0.035858423
vn -0.0 0.9993569 -0.035858423
vn -0.0 -0.7968652 0.6041571
vn -0.0 -0.7968652 0.6041571
vn -0.0 -0.7968651 0.60415727
vn -0.0 -0.79686534 0.6041569
vn -0.0 -0.9993567 0.03586293
vn -0.0 -0.9993567 0.03586293
vn -0.0 -0.9993567 0.03586293
vn -0.0 -0.9993567 0.03586293
vn 1.0 0.0 0.0
vn 1.0 0.0 0.0
vn 1.0 0.0 0.0
vn 1.0 0.0 0.0
vn -1.0 0.0 0.0
vn -1.0 0.0 0.0
vn -1.0 0.0 0.0
vn -1.0 0.0 0.0
vn -0.008925528 -0.047829527 -0.99881566
vn -0.008925528 -0.047829527 -0.99881566
vn -0.00892514 -0.04783569 -0.9988153
vn -0.008925917 -0.047823355 -0.9988159
vn 0.059502207 0.99705976 -0.048282024
vn 0.059502207 0.99705976 -0.048282024
vn 0.059502177 0.99705976 -0.04828195
vn 0.059502233 0.99705976 -0.048282098
vn 0.008925328 0.047835696 0.9988153
vn 0.008925328 0.047835696 0.9988153
vn 0.008925328 0.047835696 0.9988153
vn 0.008925328 0.047835696 0.9988153
vn -0.059502147 -0.99705976 0.04828199
vn -0.059502147 -0.99705976 0.04828199
vn -0.059502114 -0.99705976 0.048282072
vn -0.059502177 -0.99705976 0.04828191
vn 0.9981881 -0.05986552 -0.0060505494
vn 0.9981881 -0.05986552 -0.0060505494
vn 0.9981881 -0.059865486 -0.006050563
vn 0.9981881 -0.059865553 -0.006050536
vn -0.9981881 0.059865635 0.0060505252
vn -0.9981881 0.059865635 0.0060505252
vn -0.9981881 0.05986572 0.006050548
vn -0.9981881 0.05986555 0.006050503
vn 0.0038425212 -0.14829522 -0.98893577
vn 0.0038425212 -0.14829522 -0.98893577
vn 0.003843569 -0.14830214 -0.9889346
vn 0.0038414719 -0.14828824 -0.98893666
vn -0.025621936 0.98860544 -0.14833316
vn -0.025621936 0.98860544 -0.14833316
vn -0.025622034 0.98860544 -0.14833291
vn -0.025621837 0.98860544 -0.14833343
vn -0.003842211 0.1482832 0.9889375
vn -0.003842211 0.1482832 0.9889375
vn -0.003842713 0.14827809 0.9889382
vn -0.0038417089 0.14828831 0.98893666
vn 0.025620377 -0.98860544 0.14833382
vn 0.025620377 -0.98860544 0.14833382
vn 0.025620468 -0.9886053 0.14833404
vn 0.025620284 -0.98860544 0.1483336
vn 0.9996644 0.025902519 0.0
vn 0.9996644 0.025902519 0.0
vn 0.9996643 0.025908494 0.0
vn 0.99966466 0.025896545 0.0
vn -0.9996643 -0.025908928 0.0
vn -0.9996643 -0.025908928 0.0
vn -0.9996643 -0.025909027 0.0
vn -0.9996643 -0.02590883 0.0
vt 0.014332 0.110032976
vt 0.033803 0.009034991
vt 0.033803 0.110032976
vt 0.014332 0.009034991
vt 0.014332 0.110032976
vt 0.033803 0.009034991
vt 0.033803 0.110032976
vt 0.014332 0.009034991
vt 0.014332 0.110032976
vt 0.033803 0.009034991
vt 0.033803 0.110032976
vt 0.014332 0.009034991
vt 0.014332 0.110032976
vt 0.033803 0.009034991
vt 0.033803 0.110032976
vt 0.014332 0.009034991
vt 0.014332 0.110032976
vt 0.033803 0.009034991
vt 0.033803 0.110032976
vt 0.014332 0.009034991
vt 0.033803 0.009034991
vt 0.014332 0.110032976
vt 0.014332 0.009034991
vt 0.033803 0.110032976
vt 0.014332 0.110032976
vt 0.033803 0.009034991
vt 0.033803 0.110032976
vt 0.014332 0.009034991
vt 0.014332 0.110032976
vt 0.033803 0.009034991
vt 0.033803 0.110032976
vt 0.014332 0.009034991
vt 0.014332 0.110032976
vt 0.033803 0.009034991
vt 0.033803 0.110032976
vt 0.014332 0.009034991
vt 0.014332 0.110032976
vt 0.033803 0.009034991
vt 0.033803 0.110032976
vt 0.014332 0.009034991
vt 0.014332 0.110032976
vt 0.033803 0.009034991
vt 0.033803 0.110032976
vt 0.014332 0.009034991
vt 0.033803 0.009034991
vt 0.014332 0.110032976
vt 0.014332 0.009034991
vt 0.033803 0.110032976
vt 0.014332 0.110032976
vt 0.033803 0.009034991
vt 0.033803 0.110032976
vt 0.014332 0.009034991
vt 0.014332 0.110032976
vt 0.033803 0.009034991
vt 0.033803 0.110032976
vt 0.014332 0.009034991
vt 0.014332 0.110032976
vt 0.033803 0.009034991
vt 0.033803 0.110032976
vt 0.014332 0.009034991
vt 0.014332 0.110032976
vt 0.033803 0.009034991
vt 0.033803 0.110032976
vt 0.014332 0.009034991
vt 0.014332 0.110032976
vt 0.033803 0.009034991
vt 0.033803 0.110032976
vt 0.014332 0.009034991
vt 0.033803 0.009034991
vt 0.014332 0.110032976
vt 0.014332 0.009034991
vt 0.033803 0.110032976
vt 0.014332 0.110032976
vt 0.033803 0.009034991
vt 0.033803 0.110032976
vt 0.014332 0.009034991
vt 0.014332 0.110032976
vt 0.033803 0.009034991
vt 0.033803 0.110032976
vt 0.014332 0.009034991
vt 0.014332 0.110032976
vt 0.033803 0.009034991
vt 0.033803 0.110032976
vt 0.014332 0.009034991
vt 0.014332 0.110032976
vt 0.033803 0.009034991
vt 0.033803 0.110032976
vt 0.014332 0.009034991
vt 0.014332 0.110032976
vt 0.033803 0.009034991
vt 0.033803 0.110032976
vt 0.014332 0.009034991
vt 0.033803 0.009034991
vt 0.014332 0.110032976
vt 0.014332 0.009034991
vt 0.033803 0.110032976
vt 0.014332 0.110032976
vt 0.033803 0.009034991
vt 0.033803 0.110032976
vt 0.014332 0.009034991
vt 0.014332 0.110032976
vt 0.033803 0.009034991
vt 0.033803 0.110032976
vt 0.014332 0.009034991
vt 0.014332 0.110032976
vt 0.033803 0.009034991
vt 0.033803 0.110032976
vt 0.014332 0.009034991
vt 0.014332 0.110032976
vt 0.033803 0.009034991
vt 0.033803 0.110032976
vt 0.014332 0.009034991
vt 0.014332 0.110032976
vt 0.033803 0.009034991
vt 0.033803 0.110032976
vt 0.014332 0.009034991
vt 0.033803 0.009034991
vt 0.014332 0.110032976
vt 0.014332 0.009034991
vt 0.033803 0.110032976

g Cube_006_Cube_009
s 1
usemtl Cube_006_Cube_009
f 3/3/3 2/2/2 1/1/1 
f 2/2/2 4/4/4 1/1/1 
f 7/7/7 6/6/6 5/5/5 
f 6/6/6 8/8/8 5/5/5 
f 11/11/11 10/10/10 9/9/9 
f 10/10/10 12/12/12 9/9/9 
f 15/15/15 14/14/14 13/13/13 
f 14/14/14 16/16/16 13/13/13 
f 19/19/19 18/18/18 17/17/17 
f 18/18/18 20/20/20 17/17/17 
f 23/23/23 22/22/22 21/21/21 
f 22/22/22 24/24/24 21/21/21 
f 27/27/27 26/26/26 25/25/25 
f 26/26/26 28/28/28 25/25/25 
f 31/31/31 30/30/30 29/29/29 
f 30/30/30 32/32/32 29/29/29 
f 35/35/35 34/34/34 33/33/33 
f 34/34/34 36/36/36 33/33/33 
f 39/39/39 38/38/38 37/37/37 
f 38/38/38 40/40/40 37/37/37 
f 43/43/43 42/42/42 41/41/41 
f 42/42/42 44/44/44 41/41/41 
f 47/47/47 46/46/46 45/45/45 
f 46/46/46 48/48/48 45/45/45 
f 51/51/51 50/50/50 49/49/49 
f 50/50/50 52/52/52 49/49/49 
f 55/55/55 54/54/54 53/53/53 
f 54/54/54 56/56/56 53/53/53 
f 59/59/59 58/58/58 57/57/57 
f 58/58/58 60/60/60 57/57/57 
f 63/63/63 62/62/62 61/61/61 
f 62/62/62 64/64/64 61/61/61 
f 67/67/67 66/66/66 65/65/65 
f 66/66/66 68/68/68 65/65/65 
f 71/71/71 70/70/70 69/69/69 
f 70/70/70 72/72/72 69/69/69 
f 75/75/75 74/74/74 73/73/73 
f 74/74/74 76/76/76 73/73/73 
f 79/79/79 78/78/78 77/77/77 
f 78/78/78 80/80/80 77/77/77 
f 83/83/83 82/82/82 81/81/81 
f 82/82/82 84/84/84 81/81/81 
f 87/87/87 86/86/86 85/85/85 
f 86/86/86 88/88/88 85/85/85 
f 91/91/91 90/90/90 89/89/89 
f 90/90/90 92/92/92 89/89/89 
f 95/95/95 94/94/94 93/93/93 
f 94/94/94 96/96/96 93/93/93 
f 99/99/99 98/98/98 97/97/97 
f 98/98/98 100/100/100 97/97/97 
f 103/103/103 102/102/102 101/101/101 
f 102/102/102 104/104/104 101/101/101 
f 107/107/107 106/106/106 105/105/105 
f 106/106/106 108/108/108 105/105/105 
f 111/111/111 110/110/110 109/109/109 
f 110/110/110 112/112/112 109/109/109 
f 115/115/115 114/114/114 113/113/113 
f 114/114/114 116/116/116 113/113/113 
f 119/119/119 118/118/118 117/117/117 
f 118/118/118 120/120/120 117/117/117 

