# Created by DisUnity v0.3.4
v 0.135896 -0.052829 -0.178988
v -0.135896 -0.052829 0.092684
v 0.135896 -0.052829 0.092705
v -0.135896 -0.052829 -0.178885
v 0.090931 1.822825 -0.1778
v 0.006505 2.161227 -0.01051
v -0.090931 1.822825 -0.154723
v 0.175166 2.093203 -0.081933
v -0.24602 2.043638 -0.009859
v -0.148584 2.205882 0.049929
v -0.603473 2.737921 0.28656
v -0.529221 2.86156 0.274931
v 0.305757 2.579947 0.033784
v 0.474418 2.511923 -0.022094
v 0.332718 2.970048 -0.024936
v 0.501379 2.902024 -0.066331
v 0.598144 3.536989 0.001402
v 0.703558 3.494474 -0.02447
v 0.628891 4.141909 -0.060091
v 0.675122 4.123263 -0.071437
v 0.034727 1.421798 -0.41863
v 0.235817 1.421798 -0.436745
v 0.002366 1.02077 -0.490921
v 0.222684 1.02077 -0.504074
v -0.226715 0.483971 -0.204135
v 0.01934 0.483971 -0.210763
v -0.135896 -0.052829 -0.178885
v 0.135896 -0.052829 -0.178988
v 0.235817 1.421798 -0.436745
v 0.090931 1.822825 0.003969
v 0.090931 1.822825 -0.1778
v 0.235817 1.421798 -0.235702
v 0.175166 2.093203 -0.081933
v 0.175166 2.093203 0.099637
v 0.474418 2.511923 -0.022094
v 0.474418 2.511923 0.159627
v 0.501379 2.902024 -0.066331
v 0.501379 2.902024 0.115531
v 0.703558 3.494474 -0.02447
v 0.703558 3.494474 0.089195
v 0.675122 4.123263 -0.071437
v 0.675122 4.123263 -0.021588
v 0.222684 1.02077 -0.504074
v 0.222683 1.02077 -0.283757
v 0.01934 0.483971 -0.210763
v 0.019339 0.483971 0.035242
v 0.135896 -0.052829 -0.178988
v 0.135896 -0.052829 0.092705
v 0.235817 1.421798 -0.235702
v -0.090931 1.822825 0.026928
v 0.090931 1.822825 0.003969
v 0.034727 1.421798 -0.217646
v 0.175166 2.093203 0.099637
v 0.006505 2.161227 0.171057
v -0.148584 2.205882 0.232503
v -0.24602 2.043638 0.17194
v -0.529221 2.86156 0.413521
v -0.603473 2.737921 0.42515
v -0.672601 2.942141 0.413521
v -0.746853 2.818502 0.42515
v -1.079004 3.170541 0.318207
v -1.153256 3.046902 0.324766
v -1.313318 3.801502 0.124895
v -1.453344 3.766964 0.098395
v 0.474418 2.511923 0.159627
v 0.305757 2.579947 0.215504
v 0.501379 2.902024 0.115531
v 0.332718 2.970048 0.156926
v 0.703558 3.494474 0.089195
v 0.598144 3.536989 0.115067
v 0.675122 4.123263 -0.021588
v 0.628891 4.141909 -0.010242
v -1.35147 4.408661 4.73E-4
v -1.41288 4.393514 -0.011149
v 0.034727 1.421798 -0.217646
v -0.090931 1.822825 -0.154723
v -0.090931 1.822825 0.026928
v 0.034727 1.421798 -0.41863
v 0.002366 1.02077 -0.270604
v 0.002366 1.02077 -0.490921
v -0.226715 0.483971 0.041808
v -0.226715 0.483971 -0.204135
v -0.135896 -0.052829 0.092684
v -0.135896 -0.052829 -0.178885
v 0.332718 2.970048 -0.024936
v 0.598144 3.536989 0.115067
v 0.332718 2.970048 0.156926
v 0.598144 3.536989 0.001402
v 0.305757 2.579947 0.033784
v 0.305757 2.579947 0.215504
v 0.006505 2.161227 -0.01051
v 0.006505 2.161227 0.171057
v 0.628891 4.141909 -0.010242
v 0.628891 4.141909 -0.060091
v -0.148584 2.205882 0.232503
v -0.529221 2.86156 0.274931
v -0.148584 2.205882 0.049929
v -0.529221 2.86156 0.413521
v 0.006505 2.161227 0.171057
v 0.006505 2.161227 -0.01051
v -0.672601 2.942141 0.274931
v -0.529221 2.86156 0.274931
v -0.672601 2.942141 0.413521
v -1.079004 3.170541 0.184151
v -1.079004 3.170541 0.318207
v -0.547369 3.062396 -0.298878
v -0.666837 3.11968 -0.236222
v -0.090931 1.822825 -0.154723
v -0.24602 2.043638 0.17194
v -0.090931 1.822825 0.026928
v -0.24602 2.043638 -0.009859
v -0.24602 2.043638 -0.009859
v -0.603473 2.737921 0.42515
v -0.24602 2.043638 0.17194
v -0.603473 2.737921 0.28656
v -1.153256 3.046902 0.186175
v -1.453344 3.766964 0.098395
v -1.153256 3.046902 0.324766
v -1.453344 3.766964 -0.01622
v -1.41288 4.393514 -0.011149
v -1.41288 4.393514 -0.061415
v -0.672601 2.942141 0.274931
v -1.153256 3.046902 0.186175
v -0.746853 2.818502 0.28656
v -1.079004 3.170541 0.184151
v -1.453344 3.766964 -0.01622
v -1.313318 3.801502 0.019753
v -1.41288 4.393514 -0.061415
v -1.35147 4.408661 -0.045638
v -0.746853 2.818502 0.28656
v -1.153256 3.046902 0.324766
v -0.746853 2.818502 0.42515
v -1.153256 3.046902 0.186175
v -0.603473 2.737921 0.28656
v -0.728705 3.031785 -0.307608
v -0.609237 2.974501 -0.368464
v -0.603473 2.737921 0.42515
v -1.079004 3.170541 0.318207
v -1.313318 3.801502 0.019753
v -1.079004 3.170541 0.184151
v -1.313318 3.801502 0.124895
v -1.35147 4.408661 -0.045638
v -1.35147 4.408661 4.73E-4
v -0.666837 3.11968 -0.236222
v -0.566029 3.455079 -0.428469
v -0.547369 3.062396 -0.298878
v -0.664218 3.469698 -0.368675
v -0.608574 3.819616 -0.478375
v -0.706764 3.834234 -0.427475
v -0.647847 4.427136 -0.570259
v -0.690909 4.433547 -0.547936
v -0.529221 2.86156 0.274931
v -0.609237 2.974501 -0.368464
v -0.603473 2.737921 0.28656
v -0.529221 2.86156 0.274931
v -0.547369 3.062396 -0.298878
v -0.611855 3.40721 -0.50589
v -0.566029 3.455079 -0.428469
v -0.654401 3.771747 -0.549661
v -0.608574 3.819616 -0.478375
v -0.667945 4.406143 -0.601523
v -0.647847 4.427136 -0.570259
v -0.746853 2.818502 0.28656
v -0.666837 3.11968 -0.236222
v -0.672601 2.942141 0.274931
v -0.728705 3.031785 -0.307608
v -0.664218 3.469698 -0.368675
v -0.710045 3.421829 -0.445953
v -0.706764 3.834234 -0.427475
v -0.752591 3.786365 -0.498927
v -0.690909 4.433547 -0.547936
v -0.711007 4.412553 -0.579273
v -0.609237 2.974501 -0.368464
v -0.710045 3.421829 -0.445953
v -0.728705 3.031785 -0.307608
v -0.611855 3.40721 -0.50589
v -0.752591 3.786365 -0.498927
v -0.654401 3.771747 -0.549661
v -0.711007 4.412553 -0.579273
v -0.667945 4.406143 -0.601523
v 0.019339 0.483971 0.035242
v 0.002366 1.02077 -0.270604
v 0.222683 1.02077 -0.283757
v -0.226715 0.483971 0.041808
v 0.135896 -0.052829 0.092705
v -0.135896 -0.052829 0.092684
v -1.41288 4.393514 -0.061415
v -1.35147 4.408661 4.73E-4
v -1.41288 4.393514 -0.011149
v -1.35147 4.408661 -0.045638
v -0.647847 4.427136 -0.570259
v -0.711007 4.412553 -0.579273
v -0.667945 4.406143 -0.601523
v -0.690909 4.433547 -0.547936
v 0.675122 4.123263 -0.071437
v 0.628891 4.141909 -0.010242
v 0.628891 4.141909 -0.060091
v 0.675122 4.123263 -0.021588
vn -0.0 -1.0 0.0
vn -0.0 -1.0 0.0
vn -0.0 -1.0 0.0
vn -0.0 -1.0 0.0
vn -0.13079654 0.46371496 -0.8762766
vn -0.20515187 0.39607126 -0.8950085
vn -0.14218116 0.45870683 -0.87713885
vn -0.23169729 0.31879067 -0.9190696
vn -0.15479913 0.41838735 -0.89497995
vn -0.20479235 0.31797668 -0.9257164
vn -0.20044902 0.24993546 -0.9472869
vn -0.34467542 0.1194214 -0.93109477
vn -0.28054804 0.15396002 -0.9474117
vn -0.2801523 0.02440297 -0.95964533
vn -0.2727504 -0.024543582 -0.9617718
vn -0.21563046 0.05850998 -0.9747206
vn -0.21483132 0.060522992 -0.974774
vn -0.24286638 -0.011911696 -0.9699866
vn -0.2692777 -0.08384033 -0.95940626
vn -0.26927227 -0.0838398 -0.9594078
vn -0.092055835 0.41537935 -0.90497833
vn -0.07567499 0.29520324 -0.9524328
vn -0.06990944 -0.03565897 -0.9969158
vn -0.047406323 -0.2649852 -0.9630864
vn -0.035311114 -0.33240736 -0.94247466
vn -0.017368365 -0.1985683 -0.97993314
vn -0.013636234 -0.055345275 -0.9983741
vn -3.782906E-4 -0.05917181 -0.99824774
vn 0.97570056 0.21910807 0.0
vn 0.99975044 0.022338176 0.0
vn 0.99975044 0.022338176 0.0
vn 0.99567336 0.09292267 0.0
vn 0.91800416 -0.3965709 0.0
vn 0.87041646 -0.4923163 0.0
vn 0.9052619 -0.42485413 0.0
vn 0.9687354 -0.24809654 0.0
vn 0.98794866 -0.15478171 0.0
vn 0.97074944 -0.24009478 0.0
vn 0.9790948 -0.20340474 0.0
vn 0.99689376 -0.07875841 0.0
vn 0.998979 0.045177273 0.0
vn 0.998979 0.045177273 0.0
vn 0.9899234 -0.14160384 0.0
vn 0.96822584 -0.25007772 0.0
vn 0.985149 -0.17170146 0.0
vn 0.9997055 0.02426385 0.0
vn 0.9772289 0.21218786 0.0
vn 0.97722876 0.2121886 0.0
vn 0.09360344 -0.37409246 0.9226555
vn 0.15264602 -0.4434643 0.88319796
vn 0.11350669 -0.42275983 0.89910525
vn 0.07640173 -0.25719178 0.9633355
vn 0.19196665 -0.37151542 0.908364
vn 0.22320715 -0.3599619 0.905873
vn 0.112354726 -0.39936253 0.9098824
vn 0.16740996 -0.30417323 0.9377913
vn 0.116322726 -0.12980194 0.98469317
vn 0.15465823 4.375715E-5 0.98796797
vn -0.018018039 0.104348116 0.99437755
vn -0.08432512 0.13014954 0.98790205
vn -0.17971583 0.17266901 0.9684461
vn -0.21223125 0.1832106 0.9598915
vn -0.2344893 0.19465339 0.9524311
vn -0.22741203 0.18903024 0.95527554
vn 0.27589455 -0.16454557 0.9469989
vn 0.28369167 -0.015613077 0.95878845
vn 0.28487623 0.05742405 0.9568428
vn 0.24543081 0.018717427 0.96923333
vn 0.25237045 0.03733879 0.96691006
vn 0.27801004 0.1085145 0.9544292
vn 0.30188158 0.17864257 0.9364584
vn 0.30187753 0.17864338 0.93645954
vn -0.22598197 0.18191232 0.95699537
vn -0.22598246 0.18191236 0.9569951
vn -0.98449904 -0.1753902 0.0
vn -0.89694864 -0.44213486 0.0
vn -0.89694864 -0.44213486 0.0
vn -0.99890375 -0.046810582 0.0
vn -0.98243356 0.1866127 0.0
vn -0.95646346 0.29185218 0.0
vn -0.9768912 0.21373734 0.0
vn -0.9997929 0.020355912 0.0
vn -0.9859882 -0.16681531 0.0
vn -0.9859882 -0.16681533 0.0
vn -0.95063007 0.31032625 0.0
vn -0.9524672 0.30464116 0.0
vn -0.9817523 0.19016449 0.0
vn -0.98400694 0.17812978 0.0
vn -0.9687353 0.24809654 0.0
vn -0.9052619 0.42485407 0.0
vn -0.81358063 0.5814521 0.0
vn -0.81358063 0.5814521 0.0
vn -0.99871075 0.05076266 0.0
vn -0.99871075 0.05076266 0.0
vn 0.71441907 0.69971806 0.0
vn 0.84470224 0.53481495 0.021237789
vn 0.5049946 0.86312246 0.0
vn 0.63476604 0.7727044 0.0
vn 0.27669087 0.960959 0.0
vn 0.27669087 0.960959 0.0
vn 0.49941793 0.85890156 0.11344551
vn 0.7022295 0.70823765 0.072616965
vn 0.48993382 0.8717596 0.0
vn 0.67571783 0.73716044 0.0
vn 0.833435 0.55261755 0.0
vn 0.55140483 0.6830326 0.47897726
vn 0.56986123 0.48907766 0.66034937
vn -0.89694864 -0.44213486 0.0
vn -0.8436661 -0.53686833 0.0
vn -0.89694864 -0.44213486 0.0
vn -0.86730087 -0.49778417 0.0
vn -0.86730087 -0.49778417 0.0
vn -0.78544784 -0.6189279 0.0
vn -0.8436661 -0.53686833 0.0
vn -0.5941583 -0.79478526 -0.12366217
vn -0.81825894 -0.5748499 0.0
vn -0.9706293 -0.24058016 0.0
vn -0.666548 -0.7454621 0.0
vn -0.99618226 -0.087297074 0.0
vn -0.99792105 0.064448014 0.0
vn -0.99792105 0.064448014 0.0
vn 0.14935815 -0.14357115 -0.9783044
vn 0.18259731 -0.15082856 -0.9715498
vn 0.14139484 -0.1765338 -0.9740859
vn 0.22867222 -0.13985887 -0.96340466
vn 0.26535615 -0.13173053 -0.95510906
vn 0.27178776 -0.105595246 -0.9565464
vn 0.26785874 -0.08651432 -0.95956606
vn 0.26786307 -0.08651343 -0.95956486
vn -0.48841757 -0.8690602 -0.07862984
vn -0.666548 -0.7454621 0.0
vn -0.48993516 -0.8717589 0.0
vn -0.81825894 -0.5748499 0.0
vn -0.5941583 -0.79478526 -0.12366217
vn -0.5450681 -0.6734124 -0.49941614
vn -0.5680141 -0.47014934 -0.67551434
vn -0.78544784 -0.6189279 0.0
vn 0.833435 0.55261755 0.0
vn 0.9668305 0.25541902 0.0
vn 0.67571783 0.73716044 0.0
vn 0.98721933 0.15936697 0.0
vn 0.99803156 0.0627132 0.0
vn 0.99803156 0.0627132 0.0
vn 0.56986123 0.48907766 0.66034937
vn 0.53704613 0.25304207 0.80470556
vn 0.55140483 0.6830326 0.47897726
vn 0.51227486 0.2225792 0.8294775
vn 0.49298283 0.1770718 0.8518296
vn 0.47344008 0.1723583 0.86379814
vn 0.473031 0.16157179 0.8661041
vn 0.47303408 0.16157109 0.8661025
vn 0.85040534 -0.4899362 -0.19176373
vn 0.8655527 -0.39098424 -0.31296945
vn 0.8327168 -0.51839113 -0.19455884
vn 0.9937862 0.0071852724 -0.11107358
vn 0.88101757 -0.25024658 -0.4014782
vn 0.8585554 -0.079080105 -0.5065856
vn 0.85859007 -0.01685778 -0.51238555
vn 0.8446146 0.010985646 -0.53526205
vn 0.84400827 -0.009426389 -0.5362474
vn 0.8484957 -0.025098214 -0.5286068
vn 0.8484977 -0.02509736 -0.5286037
vn -0.84965014 0.5026385 0.15952738
vn -0.86904716 0.40924412 0.27798635
vn -0.83750683 0.51903623 0.17083283
vn -0.8851409 0.2956921 0.35929337
vn -0.86987364 0.122775964 0.4777509
vn -0.8668681 0.051819712 0.49583715
vn -0.8561241 0.028356843 0.5159917
vn -0.86116123 0.073662184 0.50296634
vn -0.8701129 0.11914438 0.47823444
vn -0.8701162 0.119144246 0.4782286
vn -0.5680141 -0.47014934 -0.67551434
vn -0.5327983 -0.23397122 -0.8132549
vn -0.5450681 -0.6734124 -0.49941614
vn -0.5124144 -0.20061184 -0.8349769
vn -0.49106055 -0.14135884 -0.85957956
vn -0.46898124 -0.10776831 -0.8766086
vn -0.46709666 -0.08194512 -0.88040084
vn -0.4670976 -0.08194519 -0.88040036
vn 0.034444757 0.37459487 0.9265486
vn 0.04686606 0.29933313 0.95299697
vn 0.06974155 0.08347308 0.9940666
vn 0.016856674 0.23853159 0.97098845
vn 0.013217047 0.10322887 0.99456984
vn -7.690475E-5 0.09434073 0.99553996
vn -0.23947275 0.97090316 0.0
vn -0.23947275 0.97090316 0.0
vn -0.23947276 0.97090316 0.0
vn -0.23947275 0.97090316 0.0
vn -0.12793238 0.85972345 -0.49447832
vn -0.12793238 0.85972345 -0.49447832
vn -0.1278076 0.8594726 -0.49494666
vn -0.12805714 0.8599742 -0.49400988
vn 0.3740493 0.92740875 0.0
vn 0.3740493 0.92740875 0.0
vn 0.3740493 0.92740875 0.0
vn 0.37404934 0.92740875 0.0
vt 0.198001 0.18804902
vt 0.149502 0.135257
vt 0.198001 0.13525301
vt 0.149502 0.18802899
vt 0.585997 0.539348
vt 0.555616 0.601349
vt 0.551678 0.534041
vt 0.590929 0.593378
vt 0.512262 0.57149804
vt 0.523813 0.605259
vt 0.417363 0.69358003
vt 0.427958 0.719512
vt 0.597702 0.69024396
vt 0.632528 0.68221796
vt 0.593524 0.766189
vt 0.627896 0.75811
vt 0.625745 0.882659
vt 0.647227 0.877609
vt 0.616295 1.0
vt 0.625717 0.997786
vt 0.594469 0.461536
vt 0.632185 0.467377
vt 0.602064 0.383807
vt 0.643176 0.39018202
vt 0.565894 0.27305102
vt 0.611556 0.280142
vt 0.597016 0.17242098
vt 0.647228 0.180228
vt 0.657522 0.46671999
vt 0.736594 0.5398
vt 0.702234 0.539021
vt 0.695525 0.46758097
vt 0.719576 0.594105
vt 0.753898 0.59488297
vt 0.731607 0.685224
vt 0.765957 0.686002
vt 0.721041 0.760447
vt 0.755417 0.761226
vt 0.727446 0.881071
vt 0.748932 0.881558
vt 0.714195 0.999787
vt 0.723618 1.0
vt 0.647228 0.38944203
vt 0.688873 0.390386
vt 0.703807 0.280828
vt 0.750308 0.281882
vt 0.714599 0.18282998
vt 0.765957 0.183994
vt 0.399723 0.69965
vt 0.321006 0.643784
vt 0.355309 0.638309
vt 0.361965 0.70538604
vt 0.360679 0.58961
vt 0.325675 0.58408904
vt 0.294119 0.58218896
vt 0.282264 0.612429
vt 0.199727 0.476283
vt 0.189345 0.501836
vt 0.170709 0.46468002
vt 0.160327 0.490233
vt 0.09068 0.427656
vt 0.080417 0.45298898
vt 0.032919 0.306538
vt 0.008564 0.31532198
vt 0.402393 0.506208
vt 0.367751 0.50001204
vt 0.396827 0.430367
vt 0.362523 0.42354298
vt 0.417363 0.312981
vt 0.395923 0.308716
vt 0.395968 0.19078302
vt 0.386565 0.18891299
vt 0.010681 0.18804902
vt 0.0 0.19190198
vt 0.820482 0.711125
vt 0.831716 0.642785
vt 0.865843 0.645006
vt 0.782723 0.70866704
vt 0.807348 0.787319
vt 0.765957 0.784625
vt 0.857345 0.903085
vt 0.811139 0.900078
vt 0.865843 1.0
vt 0.814822 0.99668
vt 0.997338 0.407838
vt 0.966419 0.52703404
vt 0.963109 0.40717298
vt 0.987813 0.527449
vt 0.986046 0.33303398
vt 0.951843 0.33236903
vt 1.0 0.23962599
vt 0.965826 0.238962
vt 0.990618 0.64260304
vt 1.0 0.642785
vt 0.844023 0.049216986
vt 0.870431 0.157695
vt 0.81025 0.056703985
vt 0.896067 0.15201098
vt 0.826125 0.021147013
vt 0.792539 0.028593004
vt 0.876651 0.18850398
vt 0.870431 0.157695
vt 0.902288 0.18282098
vt 0.87749 0.27955502
vt 0.902288 0.27405697
vt 0.765957 0.19739503
vt 0.782684 0.21986198
vt 0.198001 0.18804902
vt 0.226775 0.117387
vt 0.226775 0.168643
vt 0.198001 0.13681
vt 0.149502 0.05677402
vt 0.125331 0.18804902
vt 0.117795 0.06998497
vt 0.149502 0.17797798
vt 0.912009 0.271263
vt 0.922802 0.14863902
vt 0.936815 0.27955502
vt 0.902288 0.14178199
vt 0.936815 0.027502
vt 0.927818 0.024495006
vt 0.938417 0.68977404
vt 0.865843 0.742961
vt 0.916204 0.673295
vt 0.887782 0.759571
vt 0.872855 0.89140403
vt 0.898491 0.8877
vt 0.927174 1.0
vt 0.938417 0.998376
vt 0.087075 0.060763
vt 0.0 0.053339005
vt 0.087075 0.033832014
vt 0.0 0.080271006
vt 0.117795 0.060763
vt 0.076721 0.176224
vt 0.101689 0.18804902
vt 0.117795 0.033832014
vt 0.978658 0.0
vt 0.951843 0.125094
vt 0.954382 0.0074750185
vt 0.970883 0.119230986
vt 0.970308 0.238962
vt 0.978658 0.23639101
vt 0.99118 0.73779
vt 0.965718 0.808154
vt 0.967073 0.72828
vt 0.985858 0.809474
vt 0.971309 0.879802
vt 0.99118 0.881465
vt 0.974446 0.99927
vt 0.983161 1.0
vt 0.863474 0.303173
vt 0.765957 0.382096
vt 0.852073 0.27955502
vt 0.863474 0.303173
vt 0.787083 0.3916
vt 0.782579 0.46744
vt 0.800908 0.469108
vt 0.807248 0.53136396
vt 0.824572 0.533623
vt 0.855876 0.64179397
vt 0.863474 0.642785
vt 0.939445 0.642785
vt 0.885529 0.538862
vt 0.951843 0.618989
vt 0.863474 0.548145
vt 0.895614 0.46827197
vt 0.876884 0.46989602
vt 0.916932 0.404086
vt 0.899141 0.406291
vt 0.951843 0.29343402
vt 0.944041 0.294401
vt 0.941361 1.0
vt 0.958682 0.913383
vt 0.965718 0.989091
vt 0.938417 0.91605
vt 0.965718 0.842696
vt 0.945744 0.84535503
vt 0.956718 0.720999
vt 0.947958 0.722165
vt 0.381099 0.892871
vt 0.369116 0.779198
vt 0.410329 0.773202
vt 0.33526 0.899215
vt 0.417363 0.993308
vt 0.366899 1.0
vt 0.226775 0.18804902
vt 0.236126 0.17577302
vt 0.236126 0.18625402
vt 0.227548 0.17742002
vt 0.245341 0.18740499
vt 0.251425 0.17864698
vt 0.251425 0.18804902
vt 0.245329 0.17799503
vt 0.245329 0.18804902
vt 0.236126 0.176005
vt 0.245329 0.17813098
vt 0.236126 0.18592298

g default
s 1
usemtl default
f 3/3/3 2/2/2 1/1/1 
f 2/2/2 4/4/4 1/1/1 
f 7/7/7 6/6/6 5/5/5 
f 6/6/6 8/8/8 5/5/5 
f 7/7/7 9/9/9 6/6/6 
f 9/9/9 10/10/10 6/6/6 
f 9/9/9 11/11/11 10/10/10 
f 11/11/11 12/12/12 10/10/10 
f 6/6/6 13/13/13 8/8/8 
f 13/13/13 14/14/14 8/8/8 
f 13/13/13 15/15/15 14/14/14 
f 15/15/15 16/16/16 14/14/14 
f 15/15/15 17/17/17 16/16/16 
f 17/17/17 18/18/18 16/16/16 
f 17/17/17 19/19/19 18/18/18 
f 19/19/19 20/20/20 18/18/18 
f 21/21/21 7/7/7 5/5/5 
f 23/23/23 21/21/21 22/22/22 
f 24/24/24 23/23/23 22/22/22 
f 22/22/22 21/21/21 5/5/5 
f 25/25/25 23/23/23 24/24/24 
f 26/26/26 25/25/25 24/24/24 
f 27/27/27 25/25/25 26/26/26 
f 28/28/28 27/27/27 26/26/26 
f 31/31/31 30/30/30 29/29/29 
f 30/30/30 32/32/32 29/29/29 
f 31/31/31 33/33/33 30/30/30 
f 33/33/33 34/34/34 30/30/30 
f 33/33/33 35/35/35 34/34/34 
f 35/35/35 36/36/36 34/34/34 
f 35/35/35 37/37/37 36/36/36 
f 37/37/37 38/38/38 36/36/36 
f 37/37/37 39/39/39 38/38/38 
f 39/39/39 40/40/40 38/38/38 
f 39/39/39 41/41/41 40/40/40 
f 41/41/41 42/42/42 40/40/40 
f 29/29/29 32/32/32 43/43/43 
f 32/32/32 44/44/44 43/43/43 
f 43/43/43 44/44/44 45/45/45 
f 44/44/44 46/46/46 45/45/45 
f 45/45/45 46/46/46 47/47/47 
f 46/46/46 48/48/48 47/47/47 
f 51/51/51 50/50/50 49/49/49 
f 50/50/50 52/52/52 49/49/49 
f 51/51/51 53/53/53 50/50/50 
f 53/53/53 54/54/54 50/50/50 
f 54/54/54 55/55/55 50/50/50 
f 55/55/55 56/56/56 50/50/50 
f 55/55/55 57/57/57 56/56/56 
f 57/57/57 58/58/58 56/56/56 
f 57/57/57 59/59/59 58/58/58 
f 59/59/59 60/60/60 58/58/58 
f 59/59/59 61/61/61 60/60/60 
f 61/61/61 62/62/62 60/60/60 
f 61/61/61 63/63/63 62/62/62 
f 63/63/63 64/64/64 62/62/62 
f 53/53/53 65/65/65 54/54/54 
f 65/65/65 66/66/66 54/54/54 
f 65/65/65 67/67/67 66/66/66 
f 67/67/67 68/68/68 66/66/66 
f 67/67/67 69/69/69 68/68/68 
f 69/69/69 70/70/70 68/68/68 
f 69/69/69 71/71/71 70/70/70 
f 71/71/71 72/72/72 70/70/70 
f 63/63/63 73/73/73 64/64/64 
f 73/73/73 74/74/74 64/64/64 
f 77/77/77 76/76/76 75/75/75 
f 76/76/76 78/78/78 75/75/75 
f 75/75/75 78/78/78 79/79/79 
f 78/78/78 80/80/80 79/79/79 
f 79/79/79 80/80/80 81/81/81 
f 80/80/80 82/82/82 81/81/81 
f 81/81/81 82/82/82 83/83/83 
f 82/82/82 84/84/84 83/83/83 
f 87/87/87 86/86/86 85/85/85 
f 86/86/86 88/88/88 85/85/85 
f 87/87/87 85/85/85 89/89/89 
f 90/90/90 87/87/87 89/89/89 
f 90/90/90 89/89/89 91/91/91 
f 92/92/92 90/90/90 91/91/91 
f 86/86/86 93/93/93 88/88/88 
f 93/93/93 94/94/94 88/88/88 
f 97/97/97 96/96/96 95/95/95 
f 96/96/96 98/98/98 95/95/95 
f 97/97/97 95/95/95 99/99/99 
f 100/100/100 97/97/97 99/99/99 
f 102/102/102 101/101/101 98/98/98 
f 101/101/101 103/103/103 98/98/98 
f 101/101/101 104/104/104 103/103/103 
f 104/104/104 105/105/105 103/103/103 
f 102/102/102 106/106/106 101/101/101 
f 106/106/106 107/107/107 101/101/101 
f 110/110/110 109/109/109 108/108/108 
f 109/109/109 111/111/111 108/108/108 
f 114/114/114 113/113/113 112/112/112 
f 113/113/113 115/115/115 112/112/112 
f 118/118/118 117/117/117 116/116/116 
f 117/117/117 119/119/119 116/116/116 
f 117/117/117 120/120/120 119/119/119 
f 120/120/120 121/121/121 119/119/119 
f 124/124/124 123/123/123 122/122/122 
f 123/123/123 125/125/125 122/122/122 
f 123/123/123 126/126/126 125/125/125 
f 126/126/126 127/127/127 125/125/125 
f 126/126/126 128/128/128 127/127/127 
f 128/128/128 129/129/129 127/127/127 
f 132/132/132 131/131/131 130/130/130 
f 131/131/131 133/133/133 130/130/130 
f 132/132/132 130/130/130 134/134/134 
f 130/130/130 135/135/135 134/134/134 
f 135/135/135 136/136/136 134/134/134 
f 137/137/137 132/132/132 134/134/134 
f 140/140/140 139/139/139 138/138/138 
f 139/139/139 141/141/141 138/138/138 
f 139/139/139 142/142/142 141/141/141 
f 142/142/142 143/143/143 141/141/141 
f 146/146/146 145/145/145 144/144/144 
f 145/145/145 147/147/147 144/144/144 
f 145/145/145 148/148/148 147/147/147 
f 148/148/148 149/149/149 147/147/147 
f 148/148/148 150/150/150 149/149/149 
f 150/150/150 151/151/151 149/149/149 
f 154/154/154 153/153/153 152/152/152 
f 153/153/153 156/156/156 155/155/155 
f 153/153/153 157/157/157 156/156/156 
f 157/157/157 158/158/158 156/156/156 
f 157/157/157 159/159/159 158/158/158 
f 159/159/159 160/160/160 158/158/158 
f 159/159/159 161/161/161 160/160/160 
f 161/161/161 162/162/162 160/160/160 
f 165/165/165 164/164/164 163/163/163 
f 164/164/164 166/166/166 163/163/163 
f 164/164/164 167/167/167 166/166/166 
f 167/167/167 168/168/168 166/166/166 
f 167/167/167 169/169/169 168/168/168 
f 169/169/169 170/170/170 168/168/168 
f 169/169/169 171/171/171 170/170/170 
f 171/171/171 172/172/172 170/170/170 
f 175/175/175 174/174/174 173/173/173 
f 174/174/174 176/176/176 173/173/173 
f 174/174/174 177/177/177 176/176/176 
f 177/177/177 178/178/178 176/176/176 
f 177/177/177 179/179/179 178/178/178 
f 179/179/179 180/180/180 178/178/178 
f 183/183/183 182/182/182 181/181/181 
f 182/182/182 184/184/184 181/181/181 
f 52/52/52 182/182/182 183/183/183 
f 49/49/49 52/52/52 183/183/183 
f 181/181/181 184/184/184 185/185/185 
f 184/184/184 186/186/186 185/185/185 
f 189/189/189 188/188/188 187/187/187 
f 188/188/188 190/190/190 187/187/187 
f 193/193/193 192/192/192 191/191/191 
f 192/192/192 194/194/194 191/191/191 
f 197/197/197 196/196/196 195/195/195 
f 196/196/196 198/198/198 195/195/195 

