# Created by DisUnity v0.3.4
v -0.857039 3.14102 -0.347201
v -0.857039 2.216733 -0.779986
v -0.857039 3.169685 -0.779986
v -0.857039 2.188068 -0.347201
v -0.857039 3.169685 -0.779986
v -0.424254 2.216733 -0.779986
v -0.424254 3.169685 -0.779986
v -0.857039 2.216733 -0.779986
v -0.424254 3.169685 -0.779986
v -0.424254 2.188068 -0.347201
v -0.424254 3.14102 -0.347201
v -0.424254 2.216733 -0.779986
v -0.424254 3.14102 -0.347201
v -0.857039 2.188068 -0.347201
v -0.857039 3.14102 -0.347201
v -0.424254 2.188068 -0.347201
v -0.424254 3.14102 -0.347201
v -0.857039 3.169685 -0.779986
v -0.424254 3.169685 -0.779986
v -0.857039 3.14102 -0.347201
v -0.0 2.162755 -0.849596
v 2.3 1.352651 -1.699192
v 2.414789 2.296957 -0.849596
v -0.0 1.352651 -1.699192
v -2.414789 2.296957 -0.849596
v -2.3 1.352651 -1.699192
v -3.023363 3.241263 0.0
v -0.0 2.97286 0.0
v 3.023363 3.241263 0.0
v -0.0 2.162755 0.849596
v 3.023363 3.241263 0.0
v 2.414789 2.296957 0.849596
v -0.0 2.97286 0.0
v -2.414789 2.296957 0.849596
v -3.023363 3.241263 0.0
v -0.0 1.352651 1.699192
v 2.3 1.352651 1.699192
v -2.3 1.352651 1.699192
v -0.0 0.0 1.0
v -2.0 2.0 1.0
v -1.0E-6 2.0 1.000001
v -2.0 0.0 1.0
v -2.0 0.0 1.0
v -2.0 2.0 -1.0
v -2.0 2.0 1.0
v -2.0 0.0 -1.0
v -0.0 2.0 -0.999999
v -2.0 0.0 -1.0
v -0.0 0.0 -1.0
v -2.0 2.0 -1.0
v 2.0 0.0 -1.0
v 1.999999 2.0 1.000001
v 2.0 2.0 -0.999999
v 2.0 0.0 1.0
v -0.0 0.0 -1.0
v 2.0 2.0 -0.999999
v -0.0 2.0 -0.999999
v 2.0 0.0 -1.0
v -1.0E-6 2.0 1.000001
v 2.0 0.0 1.0
v -0.0 0.0 1.0
v 1.999999 2.0 1.000001
v -2.0 2.0 -1.0
v -2.0 3.0 0.0
v -2.0 2.0 1.0
v 1.999999 2.0 1.000001
v 2.0 3.0 1.0E-6
v 2.0 2.0 -0.999999
v -0.0 2.837262 0.0
v 2.414789 2.161359 -0.797127
v -0.0 2.027158 -0.797127
v 2.924688 2.990073 0.0
v -2.924688 2.990073 0.0
v -2.414789 2.161359 -0.797127
v -0.0 1.217053 -1.594253
v -2.3 1.217053 -1.594253
v 2.3 1.217053 -1.594253
v -2.3 1.217053 1.594253
v -0.0 2.027157 0.797127
v -2.414789 2.161359 0.797127
v -0.0 1.217053 1.594253
v 2.414789 2.161359 0.797127
v 2.3 1.217053 1.594253
v -0.0 2.837262 0.0
v -2.924688 2.990073 0.0
v 2.924688 2.990073 0.0
v 2.3 1.352651 -1.699192
v -0.0 1.217053 -1.594253
v 2.3 1.217053 -1.594253
v -0.0 1.352651 -1.699192
v -2.3 1.217053 -1.594253
v -2.3 1.352651 -1.699192
v -2.414789 2.296957 0.849596
v -2.3 1.217053 1.594253
v -2.414789 2.161359 0.797127
v -2.3 1.352651 1.699192
v -3.023363 3.241263 0.0
v -2.924688 2.990073 0.0
v 2.414789 2.296957 0.849596
v 2.924688 2.990073 0.0
v 2.414789 2.161359 0.797127
v 3.023363 3.241263 0.0
v 2.3 1.352651 1.699192
v 2.3 1.217053 1.594253
v -2.414789 2.296957 -0.849596
v -2.924688 2.990073 0.0
v -2.414789 2.161359 -0.797127
v -3.023363 3.241263 0.0
v -2.3 1.352651 -1.699192
v -2.3 1.217053 -1.594253
v 3.023363 3.241263 0.0
v 2.414789 2.161359 -0.797127
v 2.924688 2.990073 0.0
v 2.414789 2.296957 -0.849596
v 2.3 1.217053 -1.594253
v 2.3 1.352651 -1.699192
v -2.3 1.352651 1.699192
v -0.0 1.217053 1.594253
v -2.3 1.217053 1.594253
v -0.0 1.352651 1.699192
v 2.3 1.217053 1.594253
v 2.3 1.352651 1.699192
vn -1.0 0.0 0.0
vn -1.0 0.0 0.0
vn -1.0 0.0 0.0
vn -1.0 0.0 0.0
vn -0.0 0.0 -1.0
vn -0.0 0.0 -1.0
vn -0.0 0.0 -1.0
vn -0.0 0.0 -1.0
vn 1.0 0.0 0.0
vn 1.0 0.0 0.0
vn 1.0 0.0 0.0
vn 1.0 0.0 0.0
vn -0.0 0.0 1.0
vn -0.0 0.0 1.0
vn -0.0 0.0 1.0
vn -0.0 0.0 1.0
vn -0.0 0.9978137 0.0660886
vn -0.0 0.9978137 0.0660886
vn -0.0 0.9978137 0.0660886
vn -0.0 0.9978137 0.0660886
vn 0.010800737 0.7083852 -0.7057433
vn -0.018657787 0.6978912 -0.7159607
vn -0.046239678 0.6947281 -0.7177845
vn 0.013407356 0.70582366 -0.7082607
vn 0.026043896 0.69173014 -0.7216863
vn -0.0 0.6688432 -0.74340355
vn 0.051028907 0.7023513 -0.70999914
vn -0.012437093 0.71273696 -0.7013212
vn -0.061174907 0.68909097 -0.7220881
vn -0.01080074 0.70838517 0.7057434
vn -0.051028907 0.7023513 0.70999914
vn -0.026043894 0.6917302 0.72168624
vn 0.012437092 0.7127369 0.70132124
vn 0.046239678 0.6947281 0.7177845
vn 0.061174907 0.68909097 0.7220881
vn -0.013407356 0.70582366 0.7082607
vn -0.0 0.6688432 0.74340355
vn 0.018657787 0.6978912 0.7159607
vn -0.0 0.0 1.0
vn -0.0 0.0 1.0
vn -0.0 0.0 1.0
vn -0.0 0.0 1.0
vn -1.0 0.0 0.0
vn -1.0 0.0 0.0
vn -1.0 0.0 0.0
vn -1.0 0.0 0.0
vn -0.0 0.0 -1.0
vn -0.0 0.0 -1.0
vn -0.0 0.0 -1.0
vn -0.0 0.0 -1.0
vn 1.0 0.0 0.0
vn 1.0 0.0 0.0
vn 1.0 0.0 0.0
vn 1.0 0.0 0.0
vn -0.0 0.0 -1.0
vn -0.0 0.0 -1.0
vn -0.0 0.0 -1.0
vn -0.0 0.0 -1.0
vn -0.0 0.0 1.0
vn -0.0 0.0 1.0
vn -0.0 0.0 1.0
vn -0.0 0.0 1.0
vn -1.0 0.0 0.0
vn -1.0 0.0 0.0
vn -1.0 0.0 0.0
vn 1.0 0.0 0.0
vn 1.0 0.0 0.0
vn 1.0 0.0 0.0
vn 0.0130526805 -0.70249754 0.71156645
vn 0.03726417 -0.6845864 0.7279786
vn -0.006646679 -0.69337755 0.72054374
vn 0.036806002 -0.7044391 0.7088094
vn -0.037904393 -0.7030184 0.71016085
vn -0.026068052 -0.68426585 0.72876656
vn -0.012993588 -0.6829762 0.73032516
vn -0.0 -0.6450447 0.7641448
vn 0.017998168 -0.6748324 0.7377515
vn -0.0179983 -0.67483264 -0.7377513
vn 0.0066466862 -0.6933776 -0.72054374
vn -0.03726434 -0.6845863 -0.72797865
vn 0.012993688 -0.6829764 -0.73032486
vn 0.026068248 -0.6842661 -0.7287664
vn -0.0 -0.6450447 -0.7641448
vn -0.013052773 -0.7024972 -0.71156675
vn -0.036806002 -0.7044391 -0.7088094
vn 0.037904527 -0.70301825 -0.710161
vn -0.0 -0.6120275 -0.79083645
vn -0.0 -0.6120275 -0.79083645
vn -0.0 -0.6120275 -0.79083645
vn -0.0 -0.6120275 -0.79083645
vn -0.0 -0.6120275 -0.79083645
vn -0.0 -0.6120275 -0.79083645
vn -0.9740917 -0.08980823 0.20755658
vn -0.99524903 -0.04699102 0.0852713
vn -0.94753456 -0.19260898 0.25510764
vn -0.99580884 -0.055975158 0.07232877
vn -0.9409528 -0.30834314 0.13975877
vn -0.94036597 -0.30194965 -0.15664664
vn 0.94841677 -0.18628192 0.25652412
vn 0.94036597 -0.30194965 0.15664664
vn 0.97693706 -0.08549838 0.19566317
vn 0.9409528 -0.30834314 -0.13975877
vn 0.9953165 -0.04713084 0.084402226
vn 0.99551815 -0.057880484 0.07479075
vn -0.94841677 -0.18628192 -0.25652412
vn -0.94036597 -0.30194965 -0.15664664
vn -0.97693706 -0.08549838 -0.19566317
vn -0.9409528 -0.30834314 0.13975877
vn -0.9953165 -0.04713084 -0.084402226
vn -0.99551815 -0.057880484 -0.07479075
vn 0.9409528 -0.30834314 -0.13975877
vn 0.94753456 -0.19260897 -0.2551076
vn 0.94036597 -0.30194965 0.15664664
vn 0.9740918 -0.08980823 -0.20755659
vn 0.99524903 -0.04699102 -0.0852713
vn 0.99580884 -0.055975158 -0.07232877
vn -0.0 -0.6120275 0.79083645
vn -0.0 -0.6120275 0.79083645
vn -0.0 -0.6120275 0.79083645
vn -0.0 -0.6120275 0.79083645
vn -0.0 -0.6120275 0.79083645
vn -0.0 -0.6120275 0.79083645
vt 0.78893 0.849919
vt 0.732322 0.974564
vt 0.732322 0.849919
vt 0.78893 0.974564
vt 0.732255 0.849919
vt 0.675647 0.974564
vt 0.675647 0.849919
vt 0.732255 0.974564
vt 0.90228 0.849919
vt 0.845672 0.974564
vt 0.845672 0.849919
vt 0.90228 0.974564
vt 0.845605 0.849919
vt 0.788997 0.974564
vt 0.788997 0.849919
vt 0.845605 0.974564
vt 0.776414 0.835459
vt 0.682807 0.741851
vt 0.776414 0.741851
vt 0.682807 0.835459
vt 0.804682 0.09836
vt 0.936671 0.027101994
vt 0.945242 0.09973699
vt 0.804682 0.029900014
vt 0.664123 0.09973699
vt 0.672694 0.027101994
vt 0.625933 0.16895503
vt 0.804682 0.16895503
vt 0.983431 0.16895503
vt 0.804682 0.23955101
vt 0.983431 0.16895503
vt 0.945242 0.23817402
vt 0.804682 0.16895503
vt 0.664123 0.23817402
vt 0.625933 0.16895503
vt 0.804682 0.308011
vt 0.936671 0.31080902
vt 0.672693 0.31080902
vt 0.660901 0.992718
vt 0.442547 0.774363
vt 0.660901 0.774364
vt 0.442547 0.992718
vt 0.660901 0.774101
vt 0.442547 0.55574703
vt 0.660901 0.55574703
vt 0.442547 0.774101
vt 0.22393 0.55574703
vt 0.442284 0.774101
vt 0.22393 0.774101
vt 0.442285 0.55574703
vt 0.442285 0.992718
vt 0.22393 0.774363
vt 0.442285 0.774364
vt 0.22393 0.992718
vt 0.223668 0.992718
vt 0.005313 0.774363
vt 0.223668 0.774364
vt 0.005313 0.992718
vt 0.005313 0.55574703
vt 0.223668 0.774102
vt 0.005313 0.774101
vt 0.223668 0.55574703
vt 0.422712 0.53639
vt 0.538605 0.420497
vt 0.654498 0.53639
vt 0.422712 0.53639
vt 0.538605 0.420497
vt 0.654498 0.53639
vt 0.196728 0.15859902
vt 0.33733 0.22570401
vt 0.196728 0.22701597
vt 0.375489 0.15859902
vt 0.017966 0.15859902
vt 0.056126 0.22570401
vt 0.196728 0.29333198
vt 0.064756 0.296337
vt 0.328699 0.296337
vt 0.064756 0.02086103
vt 0.196728 0.09018302
vt 0.056126 0.09149498
vt 0.196728 0.023867011
vt 0.33733 0.09149498
vt 0.328699 0.02086103
vt 0.196728 0.15859902
vt 0.017966 0.15859902
vt 0.375489 0.15859902
vt 0.307048 0.369236
vt 0.170272 0.35152102
vt 0.306049 0.35152102
vt 0.17127 0.369236
vt 0.034494 0.35152102
vt 0.035492 0.369236
vt 0.367042 0.431679
vt 0.355036 0.52532804
vt 0.355686 0.43660498
vt 0.367042 0.522859
vt 0.363562 0.337587
vt 0.352283 0.344585
vt 0.380125 0.432163
vt 0.392731 0.34648198
vt 0.391481 0.43777102
vt 0.381017 0.33569902
vt 0.380865 0.522973
vt 0.392731 0.52532804
vt 0.367281 0.432163
vt 0.379887 0.34648198
vt 0.378637 0.43777102
vt 0.368173 0.33569998
vt 0.36802 0.522973
vt 0.379887 0.52532804
vt 0.348564 0.337587
vt 0.340689 0.43660402
vt 0.337285 0.344585
vt 0.352044 0.431678
vt 0.340038 0.52532804
vt 0.352044 0.522859
vt 0.029725 0.323735
vt 0.166501 0.34144998
vt 0.030723 0.34144998
vt 0.165503 0.323735
vt 0.302279 0.34144998
vt 0.301281 0.323735

g default
s 1
usemtl default
f 3/3/3 2/2/2 1/1/1 
f 2/2/2 4/4/4 1/1/1 
f 7/7/7 6/6/6 5/5/5 
f 6/6/6 8/8/8 5/5/5 
f 11/11/11 10/10/10 9/9/9 
f 10/10/10 12/12/12 9/9/9 
f 15/15/15 14/14/14 13/13/13 
f 14/14/14 16/16/16 13/13/13 
f 19/19/19 18/18/18 17/17/17 
f 18/18/18 20/20/20 17/17/17 
f 23/23/23 22/22/22 21/21/21 
f 22/22/22 24/24/24 21/21/21 
f 21/21/21 24/24/24 25/25/25 
f 24/24/24 26/26/26 25/25/25 
f 21/21/21 25/25/25 27/27/27 
f 28/28/28 21/21/21 27/27/27 
f 23/23/23 21/21/21 28/28/28 
f 29/29/29 23/23/23 28/28/28 
f 32/32/32 31/31/31 30/30/30 
f 31/31/31 33/33/33 30/30/30 
f 30/30/30 33/33/33 34/34/34 
f 33/33/33 35/35/35 34/34/34 
f 32/32/32 30/30/30 36/36/36 
f 37/37/37 32/32/32 36/36/36 
f 36/36/36 30/30/30 38/38/38 
f 30/30/30 34/34/34 38/38/38 
f 41/41/41 40/40/40 39/39/39 
f 40/40/40 42/42/42 39/39/39 
f 45/45/45 44/44/44 43/43/43 
f 44/44/44 46/46/46 43/43/43 
f 49/49/49 48/48/48 47/47/47 
f 48/48/48 50/50/50 47/47/47 
f 53/53/53 52/52/52 51/51/51 
f 52/52/52 54/54/54 51/51/51 
f 57/57/57 56/56/56 55/55/55 
f 56/56/56 58/58/58 55/55/55 
f 61/61/61 60/60/60 59/59/59 
f 60/60/60 62/62/62 59/59/59 
f 65/65/65 64/64/64 63/63/63 
f 68/68/68 67/67/67 66/66/66 
f 71/71/71 70/70/70 69/69/69 
f 70/70/70 72/72/72 69/69/69 
f 71/71/71 69/69/69 73/73/73 
f 74/74/74 71/71/71 73/73/73 
f 75/75/75 71/71/71 74/74/74 
f 76/76/76 75/75/75 74/74/74 
f 75/75/75 77/77/77 71/71/71 
f 77/77/77 70/70/70 71/71/71 
f 80/80/80 79/79/79 78/78/78 
f 79/79/79 81/81/81 78/78/78 
f 79/79/79 82/82/82 81/81/81 
f 82/82/82 83/83/83 81/81/81 
f 84/84/84 79/79/79 80/80/80 
f 85/85/85 84/84/84 80/80/80 
f 84/84/84 86/86/86 79/79/79 
f 86/86/86 82/82/82 79/79/79 
f 89/89/89 88/88/88 87/87/87 
f 88/88/88 90/90/90 87/87/87 
f 88/88/88 91/91/91 90/90/90 
f 91/91/91 92/92/92 90/90/90 
f 95/95/95 94/94/94 93/93/93 
f 94/94/94 96/96/96 93/93/93 
f 95/95/95 93/93/93 97/97/97 
f 98/98/98 95/95/95 97/97/97 
f 101/101/101 100/100/100 99/99/99 
f 100/100/100 102/102/102 99/99/99 
f 101/101/101 99/99/99 103/103/103 
f 104/104/104 101/101/101 103/103/103 
f 107/107/107 106/106/106 105/105/105 
f 106/106/106 108/108/108 105/105/105 
f 107/107/107 105/105/105 109/109/109 
f 110/110/110 107/107/107 109/109/109 
f 113/113/113 112/112/112 111/111/111 
f 112/112/112 114/114/114 111/111/111 
f 112/112/112 115/115/115 114/114/114 
f 115/115/115 116/116/116 114/114/114 
f 119/119/119 118/118/118 117/117/117 
f 118/118/118 120/120/120 117/117/117 
f 118/118/118 121/121/121 120/120/120 
f 121/121/121 122/122/122 120/120/120 

